<mxfile host="65bd71144e">
    <diagram id="DC5Lusc0K-zUCNjeIMTW" name="Page-1">
        <mxGraphModel dx="1228" dy="420" grid="1" gridSize="10" guides="1" tooltips="1" connect="1" arrows="1" fold="1" page="1" pageScale="1" pageWidth="850" pageHeight="1100" math="0" shadow="0">
            <root>
                <mxCell id="0"/>
                <mxCell id="1" parent="0"/>
                <mxCell id="27" value="Object" style="html=1;strokeWidth=3;" parent="1" vertex="1">
                    <mxGeometry x="190" y="90" width="410" height="500" as="geometry"/>
                </mxCell>
                <mxCell id="2" value="Run&lt;br&gt;Advertising Campaign" style="ellipse;whiteSpace=wrap;html=1;fillColor=#d5e8d4;strokeColor=#82b366;strokeWidth=4;" parent="1" vertex="1">
                    <mxGeometry x="330" y="285" width="160" height="70" as="geometry"/>
                </mxCell>
                <mxCell id="3" value="Commission&lt;br&gt;Advettising Company" style="ellipse;whiteSpace=wrap;html=1;fillColor=#d5e8d4;strokeColor=#82b366;strokeWidth=4;" parent="1" vertex="1">
                    <mxGeometry x="320" y="130" width="160" height="70" as="geometry"/>
                </mxCell>
                <mxCell id="4" value="Design/Implement&lt;br&gt;Customer Advert" style="ellipse;whiteSpace=wrap;html=1;fillColor=#d5e8d4;strokeColor=#82b366;strokeWidth=4;" parent="1" vertex="1">
                    <mxGeometry x="340" y="490" width="160" height="70" as="geometry"/>
                </mxCell>
                <mxCell id="5" value="&lt;font color=&quot;#000000&quot; style=&quot;font-size: 18px&quot;&gt;Technical Staff&lt;/font&gt;" style="shape=umlActor;verticalLabelPosition=bottom;verticalAlign=top;html=1;fillColor=#ffcd28;strokeColor=#d79b00;gradientColor=#ffa500;strokeWidth=4;" parent="1" vertex="1">
                    <mxGeometry x="60" y="450" width="50" height="80" as="geometry"/>
                </mxCell>
                <mxCell id="6" value="&lt;font color=&quot;#000000&quot; style=&quot;font-size: 18px&quot;&gt;Customer&lt;/font&gt;" style="shape=umlActor;verticalLabelPosition=bottom;verticalAlign=top;html=1;fillColor=#cdeb8b;strokeColor=#36393d;strokeWidth=4;" parent="1" vertex="1">
                    <mxGeometry x="60" y="110" width="50" height="90" as="geometry"/>
                </mxCell>
                <mxCell id="7" value="&lt;span style=&quot;color: rgb(0 , 0 , 0)&quot;&gt;&lt;font style=&quot;font-size: 17px&quot;&gt;Newspaper Company&lt;/font&gt;&lt;/span&gt;" style="shape=umlActor;verticalLabelPosition=bottom;verticalAlign=top;html=1;fillColor=#f8cecc;strokeColor=#b85450;gradientColor=#ea6b66;strokeWidth=4;" parent="1" vertex="1">
                    <mxGeometry x="60" y="270" width="50" height="85" as="geometry"/>
                </mxCell>
                <mxCell id="20" value="" style="endArrow=open;endFill=1;endSize=12;html=1;entryX=0;entryY=0.5;entryDx=0;entryDy=0;exitX=0.5;exitY=0.5;exitDx=0;exitDy=0;exitPerimeter=0;" parent="1" source="6" target="3" edge="1">
                    <mxGeometry width="160" relative="1" as="geometry">
                        <mxPoint x="80" y="165" as="sourcePoint"/>
                        <mxPoint x="520" y="310" as="targetPoint"/>
                    </mxGeometry>
                </mxCell>
                <mxCell id="21" value="" style="endArrow=open;endFill=1;endSize=12;html=1;entryX=0;entryY=1;entryDx=0;entryDy=0;exitX=0.5;exitY=0.5;exitDx=0;exitDy=0;exitPerimeter=0;" parent="1" source="5" target="2" edge="1">
                    <mxGeometry width="160" relative="1" as="geometry">
                        <mxPoint x="85" y="175" as="sourcePoint"/>
                        <mxPoint x="330" y="175" as="targetPoint"/>
                    </mxGeometry>
                </mxCell>
                <mxCell id="22" value="" style="endArrow=open;endFill=1;endSize=12;html=1;entryX=0;entryY=0.5;entryDx=0;entryDy=0;exitX=0.5;exitY=0.5;exitDx=0;exitDy=0;exitPerimeter=0;" parent="1" source="5" target="4" edge="1">
                    <mxGeometry width="160" relative="1" as="geometry">
                        <mxPoint x="95" y="185" as="sourcePoint"/>
                        <mxPoint x="340" y="185" as="targetPoint"/>
                    </mxGeometry>
                </mxCell>
                <mxCell id="23" value="" style="endArrow=open;endFill=1;endSize=12;html=1;entryX=0;entryY=0.5;entryDx=0;entryDy=0;exitX=0.5;exitY=0.5;exitDx=0;exitDy=0;exitPerimeter=0;" parent="1" source="7" target="2" edge="1">
                    <mxGeometry width="160" relative="1" as="geometry">
                        <mxPoint x="105" y="195" as="sourcePoint"/>
                        <mxPoint x="350" y="195" as="targetPoint"/>
                    </mxGeometry>
                </mxCell>
                <mxCell id="28" value="&lt;b&gt;&lt;font style=&quot;font-size: 32px&quot;&gt;Campaign Adminstration System&lt;/font&gt;&lt;/b&gt;" style="text;html=1;align=center;verticalAlign=middle;resizable=0;points=[];autosize=1;strokeColor=none;" parent="1" vertex="1">
                    <mxGeometry x="120" y="15" width="520" height="30" as="geometry"/>
                </mxCell>
                <mxCell id="30" value="&lt;font color=&quot;#000000&quot; style=&quot;font-size: 18px&quot;&gt;Admin Staff&lt;/font&gt;" style="shape=umlActor;verticalLabelPosition=bottom;verticalAlign=top;html=1;fillColor=#ffcd28;strokeColor=#d79b00;gradientColor=#ffa500;strokeWidth=4;" vertex="1" parent="1">
                    <mxGeometry x="670" y="280" width="50" height="80" as="geometry"/>
                </mxCell>
                <mxCell id="33" value="" style="endArrow=open;endFill=1;endSize=12;html=1;entryX=1;entryY=0.5;entryDx=0;entryDy=0;exitX=0.5;exitY=0.5;exitDx=0;exitDy=0;exitPerimeter=0;" edge="1" parent="1" source="30" target="3">
                    <mxGeometry width="160" relative="1" as="geometry">
                        <mxPoint x="690" y="320" as="sourcePoint"/>
                        <mxPoint x="804.9999999999973" y="237.5" as="targetPoint"/>
                    </mxGeometry>
                </mxCell>
                <mxCell id="34" value="" style="endArrow=open;endFill=1;endSize=12;html=1;entryX=1;entryY=0.5;entryDx=0;entryDy=0;exitX=0.5;exitY=0.5;exitDx=0;exitDy=0;exitPerimeter=0;" edge="1" parent="1" source="30" target="4">
                    <mxGeometry width="160" relative="1" as="geometry">
                        <mxPoint x="560" y="180" as="sourcePoint"/>
                        <mxPoint x="804.9999999999973" y="187.5" as="targetPoint"/>
                    </mxGeometry>
                </mxCell>
                <mxCell id="35" value="" style="endArrow=open;endFill=1;endSize=12;html=1;entryX=1;entryY=0.5;entryDx=0;entryDy=0;exitX=0.5;exitY=0.5;exitDx=0;exitDy=0;exitPerimeter=0;" edge="1" parent="1" source="30" target="2">
                    <mxGeometry width="160" relative="1" as="geometry">
                        <mxPoint x="570" y="240" as="sourcePoint"/>
                        <mxPoint x="814.9999999999973" y="247.5" as="targetPoint"/>
                    </mxGeometry>
                </mxCell>
            </root>
        </mxGraphModel>
    </diagram>
</mxfile>